<svg width="13" height="15" viewBox="0 0 13 15" fill="none" xmlns="http://www.w3.org/2000/svg">
<path d="M12.1803 2.57675C12.07 2.31583 11.8864 2.09517 11.6553 1.93863C11.4241 1.78254 11.1426 1.69052 10.8432 1.69052H9.59349V1.47492H7.78212C7.79035 1.41633 7.79495 1.35589 7.79495 1.29501C7.79492 0.580898 7.21402 0 6.49991 0C5.7858 0 5.2049 0.580898 5.2049 1.29501C5.2049 1.35589 5.20947 1.41633 5.21773 1.47492H3.40637V1.69052H2.15665C1.95752 1.69052 1.76527 1.73127 1.59178 1.80495C1.33039 1.91528 1.10976 2.09883 0.953193 2.33001C0.7971 2.56163 0.705078 2.84271 0.705078 3.14209V13.5489C0.705078 13.748 0.74583 13.9398 0.819072 14.1138C0.929844 14.3747 1.11342 14.5954 1.3446 14.7519C1.57578 14.9084 1.85727 15 2.15665 15H10.8432C11.0423 15 11.2346 14.9597 11.4085 14.8856C11.6694 14.7757 11.8901 14.5917 12.0466 14.3605C12.2027 14.1293 12.2947 13.8478 12.2947 13.5489V3.14209C12.2947 2.94252 12.254 2.75071 12.1803 2.57675ZM6.49991 0.814365C6.76496 0.814365 6.98056 1.02996 6.98056 1.29501C6.98056 1.35864 6.96773 1.41905 6.94484 1.47492H6.05448C6.03204 1.41908 6.01924 1.35864 6.01924 1.29501C6.01927 1.02996 6.23533 0.814365 6.49991 0.814365ZM11.4314 13.5489C11.4314 13.6313 11.4149 13.7073 11.3852 13.7773C11.3412 13.8821 11.2657 13.9728 11.1719 14.0369C11.0775 14.1 10.9668 14.1367 10.8432 14.1367H2.15665C2.07424 14.1367 1.9978 14.1202 1.92775 14.0909C1.82293 14.0464 1.73229 13.9709 1.66865 13.8771C1.60502 13.7828 1.5684 13.672 1.5684 13.5489V3.14209C1.5684 3.05968 1.58489 2.98324 1.61463 2.91319C1.65904 2.8079 1.73366 2.71772 1.82794 2.65409C1.92225 2.59093 2.03302 2.55431 2.15662 2.55384H3.40631V2.73375C3.40631 3.07157 3.68006 3.34532 4.01835 3.34532H8.98142C9.31971 3.34532 9.59346 3.07157 9.59346 2.73375V2.55384H10.8431C10.9256 2.55384 11.002 2.57033 11.072 2.60007C11.1769 2.64448 11.2675 2.7191 11.3311 2.81338C11.3943 2.90812 11.4309 3.01846 11.4314 3.14206V13.5489Z" fill="#8D909E"/>
<path d="M9.63011 5.07227H3.37109V5.79142H9.63011V5.07227Z" fill="#8D909E"/>
<path d="M9.63011 7.05029H3.37109V7.76944H9.63011V7.05029Z" fill="#8D909E"/>
<path d="M9.63011 9.02881H3.37109V9.74796H9.63011V9.02881Z" fill="#8D909E"/>
<path d="M9.62929 11.5469H6.5V12.2665H9.62929V11.5469Z" fill="#8D909E"/>
</svg>
